<svg xmlns="http://www.w3.org/2000/svg" viewBox="0 0 64 96" fill="none">
  <rect x="20" y="40" width="24" height="52" rx="4" fill="#d4c89a"/>
  <rect x="30" y="32" width="4" height="12" rx="2" fill="#4a4a3a"/>
  <path d="M32 4 C26 16, 20 24, 22 32 C24 38, 28 40, 32 40 C36 40, 40 38, 42 32 C44 24, 38 16, 32 4Z" fill="url(#fo)"/>
  <path d="M32 14 C29 20, 26 26, 28 32 C29 36, 31 38, 32 38 C33 38, 35 36, 36 32 C38 26, 35 20, 32 14Z" fill="url(#fi)"/>
  <defs>
    <linearGradient id="fo" x1="32" y1="4" x2="32" y2="40" gradientUnits="userSpaceOnUse">
      <stop offset="0%" stop-color="#FFD54F"/>
      <stop offset="40%" stop-color="#FF9800"/>
      <stop offset="100%" stop-color="#E65100"/>
    </linearGradient>
    <linearGradient id="fi" x1="32" y1="14" x2="32" y2="38" gradientUnits="userSpaceOnUse">
      <stop offset="0%" stop-color="#FFF9C4"/>
      <stop offset="60%" stop-color="#FFE082"/>
      <stop offset="100%" stop-color="#FFB74D"/>
    </linearGradient>
  </defs>
</svg>
